<?xml version="1.0" standalone="no"?>
<!DOCTYPE svg PUBLIC "-//W3C//DTD SVG 20010904//EN"
 "http://www.w3.org/TR/2001/REC-SVG-20010904/DTD/svg10.dtd">
<svg version="1.0" xmlns="http://www.w3.org/2000/svg"
 width="234.000000pt" height="224.000000pt" viewBox="0 0 234.000000 224.000000"
 preserveAspectRatio="xMidYMid meet">

<g transform="translate(0.000000,224.000000) scale(0.100000,-0.100000)"
fill="#000000" stroke="none">
<path d="M157 2094 c-4 -4 -7 -52 -7 -106 0 -97 0 -98 25 -98 23 0 24 3 27 73
l3 72 75 5 c72 5 75 6 75 30 0 25 -1 25 -95 28 -53 1 -99 0 -103 -4z"/>
<path d="M474 2085 c-9 -23 3 -45 26 -45 16 0 20 7 20 30 0 23 -4 30 -20 30
-11 0 -23 -7 -26 -15z"/>
<path d="M734 2085 c-9 -23 3 -45 26 -45 16 0 20 7 20 30 0 23 -4 30 -20 30
-11 0 -23 -7 -26 -15z"/>
<path d="M997 2093 c-4 -3 -7 -17 -7 -30 0 -18 5 -23 25 -23 21 0 25 5 25 30
0 22 -5 30 -18 30 -10 0 -22 -3 -25 -7z"/>
<path d="M1244 2086 c-10 -26 4 -46 31 -46 23 0 26 4 23 28 -3 31 -44 45 -54
18z"/>
<path d="M1504 2086 c-10 -26 4 -48 28 -44 17 2 23 10 23 28 0 18 -6 26 -23
28 -13 2 -25 -3 -28 -12z"/>
<path d="M1764 2086 c-10 -26 4 -48 28 -44 17 2 23 10 23 28 0 18 -6 26 -23
28 -13 2 -25 -3 -28 -12z"/>
<path d="M460 1649 l0 -261 -65 -74 c-39 -44 -63 -80 -59 -87 4 -7 34 -42 66
-78 l58 -67 0 -396 0 -397 639 3 639 3 39 31 c69 55 90 133 58 211 -18 43 -45
68 -102 94 l-43 19 0 160 0 159 83 69 c76 64 187 180 187 197 0 22 -128 149
-252 251 -16 12 -18 36 -18 219 l0 205 -615 0 -615 0 0 -261z m1170 191 c6
-12 9 -74 8 -157 -3 -159 -11 -170 -72 -109 -19 20 -40 36 -46 36 -6 0 -19 5
-30 10 -11 6 -29 15 -40 20 -11 6 -31 10 -44 10 -14 0 -28 5 -31 10 -3 6 -26
10 -50 10 -24 0 -47 5 -50 10 -4 6 -58 10 -130 10 -72 0 -126 -4 -130 -10 -3
-5 -26 -10 -50 -10 -24 0 -47 -4 -50 -10 -3 -5 -17 -10 -31 -10 -13 0 -32 -4
-42 -9 -9 -5 -28 -13 -42 -19 -94 -37 -167 -81 -213 -129 -28 -29 -54 -53 -59
-53 -4 0 -8 95 -8 210 l0 210 550 0 c538 0 550 0 560 -20z m-395 -235 c160
-16 295 -68 445 -173 86 -61 200 -174 200 -199 0 -11 -27 -46 -62 -79 -211
-200 -426 -294 -676 -294 -188 0 -359 55 -522 168 -65 46 -220 189 -220 203 0
17 115 131 184 183 94 71 182 118 281 151 76 25 253 56 285 50 8 -2 47 -6 85
-10z m-639 -637 c44 -47 95 -79 174 -110 14 -6 33 -14 42 -19 10 -5 27 -9 37
-9 11 0 23 -4 26 -10 3 -5 21 -10 40 -10 19 0 37 -4 40 -10 3 -5 40 -10 81
-10 42 0 84 -5 94 -10 13 -7 21 -7 25 0 3 5 44 10 90 10 46 0 87 5 90 10 3 6
21 10 40 10 19 0 37 5 40 10 3 6 17 10 30 10 13 0 27 5 30 10 3 6 14 10 23 10
9 0 35 16 57 35 23 21 48 35 60 33 19 -3 20 -11 23 -121 1 -69 -2 -125 -8
-137 -13 -24 -68 -28 -76 -5 -5 13 -67 15 -470 15 -462 0 -465 0 -494 -22 -17
-12 -30 -27 -30 -34 0 -13 63 -64 79 -64 19 0 49 -56 52 -95 1 -22 -3 -50 -10
-63 -15 -28 -71 -52 -122 -52 l-39 0 0 340 c0 273 3 340 13 340 7 0 36 -24 63
-52z m1140 -397 c55 -36 73 -120 38 -168 -46 -64 -41 -63 -561 -63 -259 0
-474 4 -477 8 -3 5 2 22 10 38 16 29 15 116 -1 177 l-8 28 489 -3 c402 -2 493
-6 510 -17z"/>
<path d="M1075 1466 c-104 -39 -175 -132 -175 -231 0 -51 37 -140 72 -171 54
-51 90 -64 170 -64 107 0 170 35 216 121 30 57 31 161 0 226 -45 97 -186 156
-283 119z m45 -78 c25 -28 25 -48 0 -76 -23 -24 -50 -28 -81 -12 -26 14 -27
84 -1 99 28 17 60 12 82 -11z"/>
<path d="M157 1774 c-4 -4 -7 -18 -7 -31 0 -18 5 -23 26 -23 22 0 25 4 22 27
-3 27 -26 41 -41 27z"/>
<path d="M2084 1766 c-10 -26 4 -46 31 -46 23 0 26 4 23 28 -3 31 -44 45 -54
18z"/>
<path d="M157 1514 c-4 -4 -7 -18 -7 -31 0 -18 5 -23 26 -23 22 0 25 4 22 27
-3 27 -26 41 -41 27z"/>
<path d="M2084 1506 c-10 -26 4 -46 31 -46 23 0 26 4 23 28 -3 31 -44 45 -54
18z"/>
<path d="M157 1254 c-4 -4 -7 -18 -7 -31 0 -18 5 -23 26 -23 22 0 25 4 22 27
-3 27 -26 41 -41 27z"/>
<path d="M2084 1246 c-10 -26 4 -46 31 -46 23 0 26 4 23 28 -3 31 -44 45 -54
18z"/>
<path d="M152 973 c4 -39 42 -39 46 0 3 23 0 27 -23 27 -23 0 -26 -4 -23 -27z"/>
<path d="M2084 985 c-10 -25 4 -47 28 -43 17 2 24 11 26 31 3 23 0 27 -23 27
-14 0 -28 -7 -31 -15z"/>
<path d="M152 713 c4 -39 42 -39 46 0 3 23 0 27 -23 27 -23 0 -26 -4 -23 -27z"/>
<path d="M2084 725 c-10 -25 4 -47 28 -43 17 2 24 11 26 31 3 23 0 27 -23 27
-14 0 -28 -7 -31 -15z"/>
<path d="M152 453 c2 -20 9 -28 23 -28 14 0 21 8 23 28 3 23 0 27 -23 27 -23
0 -26 -4 -23 -27z"/>
<path d="M2084 465 c-10 -25 4 -47 28 -43 17 2 24 11 26 31 3 23 0 27 -23 27
-14 0 -28 -7 -31 -15z"/>
<path d="M474 145 c-9 -23 3 -45 26 -45 16 0 20 7 20 30 0 23 -4 30 -20 30
-11 0 -23 -7 -26 -15z"/>
<path d="M734 145 c-9 -23 3 -45 26 -45 16 0 20 7 20 30 0 23 -4 30 -20 30
-11 0 -23 -7 -26 -15z"/>
<path d="M992 133 c2 -20 9 -29 26 -31 19 -3 22 1 22 27 0 27 -4 31 -26 31
-22 0 -25 -4 -22 -27z"/>
<path d="M1244 145 c-10 -25 4 -47 28 -43 17 2 24 11 26 31 3 23 0 27 -23 27
-14 0 -28 -7 -31 -15z"/>
<path d="M1504 146 c-10 -26 4 -48 28 -44 17 2 23 10 23 28 0 18 -6 26 -23 28
-13 2 -25 -3 -28 -12z"/>
<path d="M1764 146 c-10 -26 4 -48 28 -44 17 2 23 10 23 28 0 18 -6 26 -23 28
-13 2 -25 -3 -28 -12z"/>
</g>
</svg>
